<!DOCTYPE svg PUBLIC "-//W3C//DTD SVG 1.1//EN" "http://www.w3.org/Graphics/SVG/1.1/DTD/svg11.dtd" [
	<!ENTITY ns_flows "http://ns.adobe.com/Flows/1.0/">
]><svg xmlns="http://www.w3.org/2000/svg" xmlns:xlink="http://www.w3.org/1999/xlink" width="228" height="228" viewBox="-1.979 -1.466 228 228"><path fill="#E5724E" d="M112.538 0C50.385 0 0 50.386 0 112.54c0 22.88 6.828 44.166 18.558 61.93 26.338 26.44 54.83 49.02 94.103 49.02 39.78 0 68.607-22.25 94.632-50.206 11.257-17.522 17.785-38.37 17.785-60.744C225.077 50.386 174.69 0 112.537 0"/><defs><path id="a" d="M15.29 25.08H193.67v194.916H15.29z"/></defs><clipPath id="b"><use xlink:href="#a" overflow="visible"/></clipPath><path clip-path="url(#b)" fill="#37514F" d="M138 156.793s-2.05-.117-3.33-.424l.008-.005-.03-.002c-2.68-.646-7.19-2.553-9.663-8.194-.846-1.936-1.278-6.03-1.502-9.79 5.184-5.91 9.646-13.935 12.85-24.575 3.214-.67 7.784-3.322 7.784-13.073 0-8.834-3.208-12.893-3.457-13.196.01-.48.03-.97.032-1.443.914-6.573 1.773-15.083 1.377-21.953-.288-4.98-2.27-8.514-5.167-11.01-.143-.324-.25-.553-.25-.553h4.123S123.44 25.08 93.85 25.08c-33.775 0-46.925 27.497-46.925 27.497s-.486 2.85.038 6.482c-.704 2.084-1.233 4.383-1.443 6.976-.538 6.625.263 14.994 1.19 21.67l-.285-.22s-3.482 4.036-3.482 13.227c0 11.258 6.105 13.07 9.163 13.27 3.26 10.754 7.813 18.82 13.092 24.73-.234 3.564-.664 7.303-1.462 9.123-3.044 6.943-7.424 8.436-8.83 8.743-.532.105-.862.118-.862.118l.078.327-38.83 12.13c18.566 31.82 53.95 45.712 92.94 47.755.152.006 1.67.66 1.823.667 1.25.06 1.483-.687 2.743-.667.05 0-.308 2.666-.26 2.667 1.854-.04 5.36-2.88 7.193-3l-2 1.333h3.167c1.612-.107-1.168 2.252.426 2.076.572-.135 2.885-1.32 3.408-1.076 13.56-1.248 19.43.13 31.167-5.5 6.722-8.293 18.273-16.965 23.504-22.54l14.268-16.542L138 156.793z"/><path fill="#FFF" d="M110.054 171.91l27.8 24.475 12.964-41.814"/><path fill="#E0C09D" d="M156.775 85.713l-10.523 8.07 3.14 18.382s10.864 1.794 10.864-13.225c0-9.192-3.48-13.227-3.48-13.227M62.564 85.693l10.52 8.07-3.136 18.382s-10.866 1.793-10.866-13.225c0-9.19 3.482-13.227 3.482-13.227"/><path fill="#FBDAB2" d="M110.447 33.402v3.826l-.233-3.826c-24.415 1.223-53.488 19.57-44.833 66.88 3.676 20.1 11.12 32.94 20.03 40.685 7.67 6.666 16.428 9.553 24.804 10.04h.233c18.105-1.056 37.99-13.316 44.834-50.725 8.656-47.31-20.417-65.657-44.833-66.88"/><path fill="#E0C09D" d="M150.81 154.575l.01-.004h-.032c-2.68-.646-7.19-2.553-9.662-8.194-1.773-4.048-1.738-17.59-1.738-17.59l-.34.056c0-.23-.002-.39-.002-.39l-28.438 4.668v-.104l-.278.053-.276-.054v.104l-28.438-4.667s.034 13.542-1.74 17.59c-3.044 6.943-7.425 8.436-8.83 8.742-.533.105-.862.12-.862.12l7.046 29.327 33.007-6.502 4.877 3.813 2.914-1.346 35.227-1.678.887-23.52s-2.052-.117-3.333-.425M156.775 85.713l-10.523 8.07 3.14 18.382s10.864 1.794 10.864-13.225c0-9.192-3.48-13.227-3.48-13.227M62.564 85.693l10.52 8.07-3.136 18.382s-10.866 1.793-10.866-13.225c0-9.19 3.482-13.227 3.482-13.227"/><path fill="#FBDAB2" d="M110.447 33.402v3.826l-.233-3.826c-24.415 1.223-53.488 19.57-44.833 66.88 3.676 20.1 11.12 32.94 20.03 40.685 7.67 6.666 16.428 9.553 24.804 10.04h.233c18.105-1.056 37.99-13.316 44.834-50.725 8.656-47.31-20.417-65.657-44.833-66.88"/><path fill="#4C4C4C" d="M158.21 62.347c-.288-4.98-2.27-8.514-5.167-11.01-.145-.325-.25-.553-.25-.553h4.122S139.58 23.286 109.99 23.286c-33.775 0-46.927 27.498-46.927 27.498s-.485 2.85.04 6.482c-.705 2.085-1.234 4.385-1.445 6.977-1.065 13.15 3.14 33.177 3.14 33.177l.598 3.586.438-3.586s1.39-21.982 3.258-28.492c.047-.163.12-.318.18-.478.99.764 2.103 1.468 3.416 2.052 29.592 13.153 44.175 2.4 44.175 2.4s-2.502-1.3-3.148-2.31c-.933-1.458-1.56-1.874-1.633-5.162 0 0 3.645 3.755 5.454 4.932 4.483 2.914 11.88 2.54 11.88 2.54s-2.822-2.44-3.404-4.14c-.97-2.838-.715-4.918-.715-4.918s5.537 4.643 7.482 5.547c3.5 1.627 6.8 1.12 6.8 1.12s-1.39-3.486-1.655-5.247c-.747-4.932.774-5.978.774-5.978s1.616-1.942 4.155 0c2.055 1.57 5.092 4.352 5.092 4.352s1.182-.82 1.73-3.032c.403.65.725 1.334.93 2.048 1.87 6.51 4.502 30.078 4.502 30.078s3.86-17.21 3.1-30.383"/><path fill="#FBDAB2" d="M110.2 131.675c.82-2.522 1.924-10.61 1.924-10.61"/><path fill="#F4F4F4" d="M208.647 171.108L154.14 155c-2.12 10.565-20.17 18.424-41.567 18.46-21.4-.036-39.448-7.895-41.57-18.46l-54.057 16.914c19.863 31.91 55.238 53.164 95.594 53.164 40.695 0 76.343-21.607 96.107-53.97"/><path fill="#E5724E" d="M112.538 0C50.385 0 0 50.386 0 112.54c0 22.88 6.828 44.166 18.558 61.93 26.338 26.44 54.83 49.02 94.103 49.02 39.78 0 68.607-22.25 94.632-50.206 11.257-17.522 17.785-38.37 17.785-60.744C225.077 50.386 174.69 0 112.537 0"/><defs><path id="c" d="M15.29 25.08H193.67v194.916H15.29z"/></defs><clipPath id="d"><use xlink:href="#c" overflow="visible"/></clipPath><path clip-path="url(#d)" fill="#AF5A3E" d="M138 156.793s-2.05-.117-3.33-.424l.008-.005-.03-.002c-2.68-.646-7.19-2.553-9.663-8.194-.846-1.936-1.278-6.03-1.502-9.79 5.184-5.91 9.646-13.935 12.85-24.575 3.214-.67 7.784-3.322 7.784-13.073 0-8.834-3.208-12.893-3.457-13.196.01-.48.03-.97.032-1.443.914-6.573 1.773-15.083 1.377-21.953-.288-4.98-2.27-8.514-5.167-11.01-.143-.324-.25-.553-.25-.553h4.123S123.44 25.08 93.85 25.08c-33.775 0-46.925 27.497-46.925 27.497s-.486 2.85.038 6.482c-.704 2.084-1.233 4.383-1.443 6.976-.538 6.625.263 14.994 1.19 21.67l-.285-.22s-3.482 4.036-3.482 13.227c0 11.258 6.105 13.07 9.163 13.27 3.26 10.754 7.813 18.82 13.092 24.73-.234 3.564-.664 7.303-1.462 9.123-3.044 6.943-7.424 8.436-8.83 8.743-.532.105-.862.118-.862.118l.078.327-38.83 12.13c18.566 31.82 53.95 45.712 92.94 47.755.152.006 1.67.66 1.823.667 1.25.06 1.483-.687 2.743-.667.05 0-.308 2.666-.26 2.667 1.854-.04 5.36-2.88 7.193-3l-2 1.333h3.167c1.612-.107-1.168 2.252.426 2.076.572-.135 2.885-1.32 3.408-1.076 13.56-1.248 19.43.13 31.167-5.5 6.722-8.293 18.273-16.965 23.504-22.54l14.268-16.542L138 156.793z"/><path fill="#FFF" d="M110.054 171.91l27.8 24.475 12.964-41.814"/><path fill="#E0C09D" d="M156.775 85.713l-10.523 8.07 3.14 18.382s10.864 1.794 10.864-13.225c0-9.192-3.48-13.227-3.48-13.227M62.564 85.693l10.52 8.07-3.136 18.382s-10.866 1.793-10.866-13.225c0-9.19 3.482-13.227 3.482-13.227"/><path fill="#FBDAB2" d="M110.447 33.402v3.826l-.233-3.826c-24.415 1.223-53.488 19.57-44.833 66.88 3.676 20.1 11.12 32.94 20.03 40.685 7.67 6.666 16.428 9.553 24.804 10.04h.233c18.105-1.056 37.99-13.316 44.834-50.725 8.656-47.31-20.417-65.657-44.833-66.88"/><path fill="#E0C09D" d="M150.81 154.575l.01-.004h-.032c-2.68-.646-7.19-2.553-9.662-8.194-1.773-4.048-1.738-17.59-1.738-17.59l-.34.056c0-.23-.002-.39-.002-.39l-28.438 4.668v-.104l-.278.053-.276-.054v.104l-28.438-4.667s.034 13.542-1.74 17.59c-3.044 6.943-7.425 8.436-8.83 8.742-.533.105-.862.12-.862.12l7.046 29.327 33.007-6.502 4.877 3.813 2.914-1.346 35.227-1.678.887-23.52s-2.052-.117-3.333-.425M156.775 85.713l-10.523 8.07 3.14 18.382s10.864 1.794 10.864-13.225c0-9.192-3.48-13.227-3.48-13.227M62.564 85.693l10.52 8.07-3.136 18.382s-10.866 1.793-10.866-13.225c0-9.19 3.482-13.227 3.482-13.227"/><path fill="#FBDAB2" d="M110.447 33.402v3.826l-.233-3.826c-24.415 1.223-53.488 19.57-44.833 66.88 3.676 20.1 11.12 32.94 20.03 40.685 7.67 6.666 16.428 9.553 24.804 10.04h.233c18.105-1.056 37.99-13.316 44.834-50.725 8.656-47.31-20.417-65.657-44.833-66.88"/><path fill="#4C4C4C" d="M158.21 62.347c-.288-4.98-2.27-8.514-5.167-11.01-.145-.325-.25-.553-.25-.553h4.122S139.58 23.286 109.99 23.286c-33.775 0-46.927 27.498-46.927 27.498s-.485 2.85.04 6.482c-.705 2.085-1.234 4.385-1.445 6.977-1.065 13.15 3.14 33.177 3.14 33.177l.598 3.586.438-3.586s1.39-21.982 3.258-28.492c.047-.163.12-.318.18-.478.99.764 2.103 1.468 3.416 2.052 29.592 13.153 44.175 2.4 44.175 2.4s-2.502-1.3-3.148-2.31c-.933-1.458-1.56-1.874-1.633-5.162 0 0 3.645 3.755 5.454 4.932 4.483 2.914 11.88 2.54 11.88 2.54s-2.822-2.44-3.404-4.14c-.97-2.838-.715-4.918-.715-4.918s5.537 4.643 7.482 5.547c3.5 1.627 6.8 1.12 6.8 1.12s-1.39-3.486-1.655-5.247c-.747-4.932.774-5.978.774-5.978s1.616-1.942 4.155 0c2.055 1.57 5.092 4.352 5.092 4.352s1.182-.82 1.73-3.032c.403.65.725 1.334.93 2.048 1.87 6.51 4.502 30.078 4.502 30.078s3.86-17.21 3.1-30.383"/><path fill="#FBDAB2" d="M110.2 131.675c.82-2.522 1.924-10.61 1.924-10.61"/><path fill="#F4F4F4" d="M208.647 171.108L154.14 155c-2.12 10.565-20.17 18.424-41.567 18.46-21.4-.036-39.448-7.895-41.57-18.46l-54.057 16.914c19.863 31.91 55.238 53.164 95.594 53.164 40.695 0 76.343-21.607 96.107-53.97"/></svg>