<?xml version="1.0" encoding="UTF-8" standalone="no"?>
<!-- Created with Inkscape (http://www.inkscape.org/) -->

<svg
   xmlns:dc="http://purl.org/dc/elements/1.1/"
   xmlns:cc="http://creativecommons.org/ns#"
   xmlns:rdf="http://www.w3.org/1999/02/22-rdf-syntax-ns#"
   xmlns:svg="http://www.w3.org/2000/svg"
   xmlns="http://www.w3.org/2000/svg"
   xmlns:sodipodi="http://sodipodi.sourceforge.net/DTD/sodipodi-0.dtd"
   xmlns:inkscape="http://www.inkscape.org/namespaces/inkscape"
   version="1.1"
   width="797.54999"
   height="624.47498"
   id="svg2"
   xml:space="preserve"
   inkscape:version="0.48.2 r9819"
   sodipodi:docname="Toys_02.svg"><sodipodi:namedview
     pagecolor="#ffffff"
     bordercolor="#666666"
     borderopacity="1"
     objecttolerance="10"
     gridtolerance="10"
     guidetolerance="10"
     inkscape:pageopacity="0"
     inkscape:pageshadow="2"
     inkscape:window-width="1094"
     inkscape:window-height="646"
     id="namedview99"
     showgrid="false"
     inkscape:zoom="0.534456"
     inkscape:cx="551.67149"
     inkscape:cy="436.61603"
     inkscape:window-x="502"
     inkscape:window-y="65"
     inkscape:window-maximized="0"
     inkscape:current-layer="g12" /><metadata
     id="metadata8"><rdf:RDF><cc:Work
         rdf:about=""><dc:format>image/svg+xml</dc:format><dc:type
           rdf:resource="http://purl.org/dc/dcmitype/StillImage" /></cc:Work></rdf:RDF></metadata><defs
     id="defs6" /><g
     transform="matrix(1.25,0,0,-1.25,0,624.475)"
     id="g10"><g
       transform="scale(0.1,0.1)"
       id="g12"><path
         d="m 3887.2952,2355.1441 -46.53,4.102 0,427.525 -81.79,0 0,-420.31 -413.89,36.523 c -103.75,15.996 -204.55,113.477 -224.01,216.637 l -45.74,461.89 c -19.46,103.14 -121.27,186.76 -226.23,185.79 l -422.38,-3.87 c -104.97,-0.96 -199.64,-87.19 -210.37,-191.61 l -83.93,-1035.798 c -10.75,-104.426 14.53,-189.863 56.15,-189.863 41.63,0 161.57,0 266.54,0 l 621.02,0 c 104.97,0 276.73,0 381.72,0 l 427.21,0 c 104.96,0 190.86,85.887 190.86,190.859 l 0,98.184 c 0,104.969 -84.88,203.945 -188.63,219.941"
         inkscape:connector-curvature="0"
         id="path72"
         style="fill:#009245;fill-opacity:1;fill-rule:nonzero;stroke:none" /><path
         d="m 3854.8652,2942.5511 c 0,-52.05 -30.53,-94.26 -68.21,-94.26 -37.66,0 -68.2,42.21 -68.2,94.26 0,52.07 30.54,94.29 68.2,94.29 37.68,0 68.21,-42.22 68.21,-94.29"
         inkscape:connector-curvature="0"
         id="path74"
         style="fill:#cccccc;fill-opacity:1;fill-rule:nonzero;stroke:none" /><path
         d="m 3775.0552,3216.4311 c 0,-66.92 -49.37,-121.21 -110.29,-121.21 -60.91,0 -110.29,54.29 -110.29,121.21 0,66.98 49.38,121.23 110.29,121.23 60.92,0 110.29,-54.25 110.29,-121.23"
         inkscape:connector-curvature="0"
         id="path76"
         style="fill:#e6e6e6;fill-opacity:1;fill-rule:nonzero;stroke:none" /><path
         d="m 3665.5752,3530.7111 c 0,-86.78 -64.01,-157.15 -142.97,-157.15 -78.97,0 -142.97,70.37 -142.97,157.15 0,86.78 64,157.15 142.97,157.15 78.96,0 142.97,-70.37 142.97,-157.15"
         inkscape:connector-curvature="0"
         id="path78"
         style="fill:#f2f2f2;fill-opacity:1;fill-rule:nonzero;stroke:none" /><path
         d="m 3593.2052,2016.8041 c -100.14,-100.144 -100.14,-262.519 0,-362.6558 100.14,-100.1484 262.52,-100.1484 362.66,0 100.15,100.1448 100.15,262.5198 0,362.6638 -100.14,100.137 -262.51,100.137 -362.66,-0.01"
         inkscape:connector-curvature="0"
         id="path80"
         style="fill:#483737;fill-opacity:1;fill-rule:nonzero;stroke:none" /><path
         d="m 3671.0152,1902.9261 c -47.22,-47.215 -47.22,-123.758 0,-170.965 47.21,-47.219 123.77,-47.219 170.98,-0.012 47.2,47.219 47.2,123.762 0,170.977 -47.21,47.218 -123.77,47.207 -170.98,0"
         inkscape:connector-curvature="0"
         id="path82"
         style="fill:#c8b7b7;fill-opacity:1;fill-rule:nonzero;stroke:none" /><path
         d="m 3748.7552,1897.7301 c -14.24,-14.246 -14.24,-37.332 0,-51.57 14.24,-14.238 37.33,-14.25 51.56,0 14.25,14.238 14.24,37.324 0,51.57 -14.23,14.239 -37.32,14.239 -51.56,0"
         inkscape:connector-curvature="0"
         id="path84"
         style="fill:#552200;fill-opacity:1;fill-rule:nonzero;stroke:none" /><path
         d="m 2029.5252,2033.6481 c 0,-251.074 203.54,-454.617 454.6,-454.617 251.08,0 454.62,203.543 454.62,454.617 0,251.074 -203.54,454.61 -454.62,454.61 -251.06,0 -454.6,-203.536 -454.6,-454.61"
         inkscape:connector-curvature="0"
         id="path86"
         style="fill:#483737;fill-opacity:1;fill-rule:nonzero;stroke:none" /><path
         d="m 2269.8252,1988.4261 c 0,-118.372 95.94,-214.317 214.3,-214.317 118.38,0 214.33,95.945 214.33,214.317 0,118.347 -95.95,214.316 -214.33,214.316 -118.36,0 -214.3,-95.969 -214.3,-214.316"
         inkscape:connector-curvature="0"
         id="path88"
         style="fill:#c8b7b7;fill-opacity:1;fill-rule:nonzero;stroke:none" /><path
         d="m 2373.7852,2079.3631 c 0,-35.715 28.94,-64.641 64.63,-64.641 35.71,0 64.66,28.926 64.66,64.641 0,35.703 -28.95,64.637 -64.66,64.637 -35.69,0 -64.63,-28.934 -64.63,-64.637"
         inkscape:connector-curvature="0"
         id="path90"
         style="fill:#552200;fill-opacity:1;fill-rule:nonzero;stroke:none" /><path
         d="m 2777.4552,2715.2111 c 0,-67.48 -55.21,-122.7 -122.69,-122.7 l -214.69,0 c -67.48,0 -122.69,55.22 -122.69,122.7 l 0,286.26 c 0,67.48 55.21,122.7 122.69,122.7 l 214.69,0 c 67.48,0 122.69,-55.22 122.69,-122.7 l 0,-286.26"
         inkscape:connector-curvature="0"
         id="path92"
         style="fill:#9ceaff;fill-opacity:1;fill-rule:nonzero;stroke:none" /><path
         d="m 3121.0752,2619.6211 -45.74,461.89 c -2.77,14.68 -7.26,28.95 -13.15,42.66 l -73.42,0 c -67.48,0 -122.69,-55.21 -122.69,-122.7 l 0,-286.26 c 0,-67.48 55.21,-122.7 122.69,-122.7 l 139.33,0 c -2.92,8.96 -5.3,18 -7.02,27.11"
         inkscape:connector-curvature="0"
         id="path94"
         style="fill:#9ceaff;fill-opacity:1;fill-rule:nonzero;stroke:none" /><path
         d="m 4017.3452,2037.0191 c 0,-32.343 26.23,-58.574 58.58,-58.574 32.34,0 58.57,26.231 58.57,58.574 0,32.352 -26.23,58.582 -58.57,58.582 -32.35,0 -58.58,-26.23 -58.58,-58.582"
         inkscape:connector-curvature="0"
         id="path96"
         style="fill:#ed1c24;fill-opacity:1;fill-rule:nonzero;stroke:none" /><path
         d="m 4017.3452,2193.6401 c 0,-32.355 26.23,-58.586 58.58,-58.586 32.34,0 58.57,26.231 58.57,58.586 0,32.352 -26.23,58.575 -58.57,58.575 -32.35,0 -58.58,-26.223 -58.58,-58.575"
         inkscape:connector-curvature="0"
         id="path98"
         style="fill:#fbb03b;fill-opacity:1;fill-rule:nonzero;stroke:none" /></g></g></svg>